<?xml version="1.0" standalone="no"?>
<!DOCTYPE svg PUBLIC "-//W3C//DTD SVG 20010904//EN"
 "http://www.w3.org/TR/2001/REC-SVG-20010904/DTD/svg10.dtd">
<svg version="1.0" xmlns="http://www.w3.org/2000/svg"
 width="626.000000pt" height="626.000000pt" viewBox="0 0 626.000000 626.000000"
 preserveAspectRatio="xMidYMid meet">
<metadata>
Created by potrace 1.16, written by Peter Selinger 2001-2019
</metadata>
<g transform="translate(0.000000,626.000000) scale(0.100000,-0.100000)"
fill="#000000" stroke="none">
<path d="M1996 5616 c-34 -33 -34 -79 -1 -112 14 -14 25 -36 25 -50 0 -47 63
-154 91 -154 17 0 9 37 -11 55 -24 22 -26 53 -3 62 10 4 23 -2 35 -16 l18 -23
0 28 c0 57 20 103 50 119 38 20 94 19 114 -1 15 -14 16 -13 16 11 0 68 -49 97
-158 95 -43 -1 -94 2 -114 5 -31 6 -41 3 -62 -19z"/>
<path d="M4773 5420 c-6 -21 -37 -27 -49 -9 -4 8 -9 7 -15 -2 -13 -20 -11 -47
5 -82 8 -18 18 -59 22 -92 3 -33 9 -54 11 -47 3 6 16 12 29 12 14 0 22 4 19
10 -3 6 -15 10 -26 10 -20 0 -25 24 -10 49 8 12 12 12 26 -2 12 -12 34 -17 75
-17 65 0 82 -13 94 -75 9 -44 -27 -100 -57 -90 -12 4 -46 11 -76 16 -30 5 -58
12 -63 15 -11 7 -10 -15 3 -76 12 -56 29 -70 83 -70 49 0 82 15 139 63 67 56
101 128 95 203 -4 50 -9 59 -55 104 -58 56 -86 70 -146 70 -23 0 -55 7 -70 15
-27 14 -29 13 -34 -5z"/>
<path d="M2278 5185 c5 -63 -4 -95 -28 -95 -37 0 -100 32 -125 64 -30 38 -52
26 -35 -18 24 -64 15 -135 -34 -271 l-46 -130 21 -28 c18 -25 20 -33 9 -56
-12 -25 -9 -29 76 -108 103 -98 126 -103 206 -52 53 34 51 24 23 135 -12 50
-11 57 21 150 19 55 44 116 55 137 25 46 21 73 -26 143 -18 28 -47 79 -64 112
-38 75 -58 81 -53 17z"/>
<path d="M4688 4920 c-21 -4 -47 -15 -59 -26 -28 -25 -219 -302 -219 -318 0
-22 60 -94 95 -115 l34 -20 75 81 c87 95 83 99 89 -82 4 -101 -10 -419 -18
-428 -2 -2 -44 23 -93 57 -49 33 -92 58 -96 55 -3 -2 -4 -1 -1 2 2 4 -61 51
-142 105 -118 79 -150 96 -167 89 -11 -4 -50 -21 -86 -38 -36 -16 -100 -44
-144 -61 -118 -47 -109 -36 -107 -136 l2 -88 -52 5 c-56 6 -79 24 -79 64 0 50
-20 48 -196 -27 -93 -39 -175 -73 -181 -76 -9 -4 -13 -35 -13 -108 l0 -102
138 -92 c76 -50 145 -91 154 -91 9 0 31 18 48 40 49 62 60 55 60 -43 l0 -84
143 -95 143 -96 192 81 191 80 7 69 c4 37 10 71 14 73 13 8 21 -25 31 -135 10
-96 21 -172 35 -226 5 -16 -2 -24 -35 -39 -41 -18 -54 -35 -26 -35 8 0 24 -10
35 -22 19 -20 21 -31 16 -79 -4 -32 -2 -68 4 -84 8 -21 5 -67 -10 -184 -26
-202 -25 -196 -62 -220 -31 -19 -39 -34 -84 -153 -5 -15 -2 -17 25 -12 17 4
31 3 31 -2 0 -5 -20 -68 -44 -139 -55 -163 -93 -333 -107 -474 -12 -122 -19
-74 105 -706 l51 -260 45 -5 45 -6 -35 -10 c-22 -7 -62 -8 -109 -3 -96 10
-107 15 -91 34 11 13 5 15 -39 15 -55 0 -74 -17 -51 -45 28 -33 241 -83 307
-70 l36 6 -5 47 c-3 26 -4 52 -1 58 2 7 31 3 85 -13 142 -41 248 -32 232 20
-10 32 -6 116 17 316 23 202 21 325 -5 400 -15 40 -14 63 4 275 21 250 40 496
45 589 2 32 8 64 15 72 7 8 9 27 5 49 -4 19 -2 74 5 122 6 47 9 88 7 90 -1 2
-27 -13 -57 -33 l-53 -36 -19 23 c-20 25 -28 10 68 138 l33 43 -39 56 c-43 60
-42 66 8 108 40 33 42 73 7 130 -14 22 -25 45 -25 50 0 6 23 -30 51 -78 28
-48 53 -87 55 -85 1 2 -2 24 -8 48 -6 25 -10 50 -10 55 0 10 27 153 39 205 9
42 57 -185 117 -550 30 -184 57 -359 61 -389 5 -39 12 -55 25 -58 18 -5 17 -7
-1 -61 -24 -70 -24 -94 1 -117 17 -15 24 -16 49 -5 55 23 64 41 53 112 -8 50
-8 65 3 74 11 8 15 72 21 285 6 243 5 284 -11 354 -9 44 -23 92 -31 106 -10
21 -15 113 -19 385 -3 198 -9 385 -13 417 l-7 58 -64 -85 c-100 -133 -144
-165 -199 -145 -33 12 -27 33 18 64 28 20 38 31 30 39 -17 17 -11 22 23 18
l32 -3 78 163 c76 161 77 164 68 213 -5 27 -7 53 -5 57 2 4 -3 25 -12 48 -9
22 -15 43 -12 45 2 2 28 16 57 32 30 15 63 40 74 55 l20 27 -23 88 c-27 105
-50 162 -76 185 -20 17 -164 91 -200 102 -16 5 -23 2 -27 -14 -3 -11 -17 -24
-32 -30 -54 -21 -143 17 -129 55 5 12 -3 15 -42 14 -27 -1 -66 -5 -86 -9z
m-108 -3026 c11 -65 29 -150 40 -189 18 -64 35 -247 66 -690 3 -55 11 -106 16
-112 6 -7 27 -13 47 -13 31 -1 33 -2 17 -12 -12 -7 -48 -9 -100 -5 -104 8
-130 15 -116 32 12 14 -7 25 -44 25 l-23 0 -6 223 c-7 247 -20 330 -66 420
l-30 58 86 194 c48 107 88 193 90 192 1 -2 12 -57 23 -123z"/>
<path d="M1955 4438 c-15 -46 -29 -108 -32 -139 -7 -68 14 -422 31 -538 l12
-83 -40 -18 c-23 -9 -103 -43 -178 -75 -86 -36 -138 -63 -138 -72 0 -8 10 -58
22 -111 l22 -97 73 -69 c97 -92 123 -110 212 -147 58 -25 93 -33 146 -34 109
-3 112 -3 118 -26 6 -24 -8 -70 -26 -81 -23 -14 -54 -8 -76 16 -18 19 -35 24
-94 29 -40 3 -99 13 -132 22 -87 25 -233 97 -294 145 -29 23 -54 40 -56 38 -2
-1 -1 -44 2 -94 l6 -92 134 -92 c86 -59 133 -97 129 -105 -3 -8 -8 -30 -12
-51 -6 -32 -5 -36 10 -31 12 5 16 1 16 -17 0 -38 95 -105 116 -83 12 11 -8 47
-26 47 -35 0 -62 33 -67 84 l-6 47 67 -47 67 -46 87 36 c48 20 91 36 95 36 4
0 7 -11 7 -25 0 -25 20 -37 20 -12 1 6 7 0 15 -14 20 -37 125 -74 140 -49 9
15 -23 50 -41 43 -26 -10 -64 7 -79 37 -8 16 -15 32 -15 35 0 6 126 65 140 65
18 0 40 -33 40 -60 0 -26 5 -31 41 -40 69 -19 182 12 230 63 19 20 20 29 15
98 l-6 77 100 42 100 43 0 66 c0 110 -8 138 -46 162 l-34 21 0 104 c0 73 -5
114 -15 133 -18 36 -86 70 -154 78 -51 6 -51 6 -93 -41 -23 -25 -48 -46 -56
-46 -9 0 -37 14 -64 32 -48 30 -49 33 -43 67 18 107 22 95 -37 114 -87 28 -92
35 -98 135 l-5 87 -92 40 -93 40 0 101 0 100 84 58 c58 39 83 62 79 72 -3 8
-9 14 -14 14 -6 0 -45 20 -89 45 -44 25 -84 45 -89 45 -6 0 -22 -37 -36 -82z"/>
<path d="M3420 4275 c-109 -75 -139 -91 -156 -84 -12 4 -25 5 -29 1 -4 -4 -5
-2 -4 3 7 23 -31 74 -61 80 -40 9 -131 -19 -170 -51 -59 -50 -22 -94 81 -94
30 0 63 -6 72 -12 14 -11 -3 -25 -124 -106 l-139 -94 0 -95 c0 -75 3 -93 13
-86 10 8 86 59 223 151 l34 22 0 85 c0 69 3 85 15 85 16 0 55 -34 55 -49 0 -5
11 -16 25 -25 23 -15 27 -15 50 0 14 9 22 21 18 27 -3 5 -1 7 4 4 12 -8 222
128 229 148 3 6 4 50 2 97 l-3 85 -135 -92z"/>
<path d="M1287 4344 c-4 -4 -33 -6 -64 -5 -71 2 -102 -10 -130 -52 -12 -17
-36 -52 -52 -76 -40 -56 -39 -80 4 -144 45 -68 107 -155 123 -172 34 -37 87
28 85 103 -2 48 16 64 49 43 17 -11 19 -9 16 29 -1 23 3 44 9 48 6 4 15 20 18
35 4 15 13 27 21 27 8 0 14 6 14 14 0 7 9 25 21 40 28 36 22 68 -16 80 -26 7
-68 24 -86 33 -3 2 -8 0 -12 -3z"/>
<path d="M3492 3219 c-87 -59 -141 -89 -155 -87 -12 2 -31 17 -42 35 -34 55
-104 63 -187 22 -67 -34 -78 -58 -78 -178 l-1 -106 -38 -27 -39 -26 1 -98 2
-98 105 -44 c312 -131 431 -181 588 -248 l173 -74 77 52 c95 63 105 71 65 58
-17 -6 -51 -10 -74 -8 l-44 3 49 25 c67 33 77 52 45 80 l-24 22 25 -7 c84 -20
82 -21 239 65 l151 82 -2 180 -3 180 -92 38 c-83 35 -94 37 -108 24 -8 -9 -15
-26 -15 -38 0 -32 -22 -48 -75 -54 l-45 -5 0 89 0 89 -166 69 c-92 38 -174 70
-183 72 -9 2 -76 -37 -149 -87z"/>
<path d="M1035 2684 c3 -65 13 -189 22 -274 20 -185 20 -234 5 -365 -14 -125
-16 -691 -2 -700 6 -3 10 -24 10 -47 l0 -40 43 5 c97 11 210 54 222 86 10 25
-11 33 -75 29 l-62 -3 6 35 c3 19 17 177 30 350 14 173 33 369 41 435 9 66 19
158 23 205 l7 85 59 -110 c33 -60 77 -138 98 -173 27 -45 38 -74 38 -103 0
-75 31 -191 132 -487 68 -201 107 -302 121 -313 12 -10 17 -21 12 -29 -9 -15
12 -30 43 -30 13 0 60 12 105 26 167 53 164 116 -3 89 l-35 -6 -102 413 c-56
227 -107 447 -113 490 -12 84 -113 524 -122 533 -3 3 -23 -4 -44 -17 -33 -19
-51 -22 -138 -21 -90 1 -255 26 -310 48 -17 8 -18 2 -11 -111z"/>
</g>
</svg>
